<?xml version="1.0" standalone="no"?>
<!DOCTYPE svg PUBLIC "-//W3C//DTD SVG 20010904//EN"
 "http://www.w3.org/TR/2001/REC-SVG-20010904/DTD/svg10.dtd">
<svg version="1.0" xmlns="http://www.w3.org/2000/svg"
 width="200.000000pt" height="100.000000pt" viewBox="0 0 200.000000 100.000000"
 preserveAspectRatio="xMidYMid meet">
<metadata>
Created by potrace 1.13, written by Peter Selinger 2001-2015
</metadata>
<g transform="translate(0.000000,100.000000) scale(0.100000,-0.100000)"
fill="#000000" stroke="none">
<path d="M310 745 c-102 -41 -213 -87 -248 -101 l-63 -27 118 -48 c65 -27 179
-72 254 -100 l135 -51 216 86 c119 47 221 86 227 86 8 0 11 -47 11 -154 0
-134 -3 -159 -21 -201 -20 -46 -21 -48 -3 -87 9 -21 21 -41 26 -44 4 -3 17 15
29 39 21 43 21 47 5 86 -20 52 -24 381 -4 381 29 0 -17 23 -172 86 -224 91
-310 124 -318 124 -4 -1 -90 -34 -192 -75z m384 -51 c91 -37 166 -71 166 -74
0 -6 -340 -143 -355 -143 -18 1 -355 136 -355 142 0 11 344 150 361 147 9 -2
91 -34 183 -72z"/>
<path d="M1258 723 c-131 -53 -238 -99 -238 -102 0 -7 42 -24 294 -122 127
-50 187 -68 204 -64 14 3 115 42 224 86 109 43 201 79 203 79 3 0 5 -74 5
-165 0 -143 -3 -171 -19 -203 -19 -37 -19 -37 4 -82 l23 -44 21 43 c21 41 21
44 6 85 -13 35 -16 74 -13 217 l3 176 -225 91 c-124 50 -232 93 -240 96 -8 3
-122 -38 -252 -91z"/>
<path d="M606 424 l-108 -45 -107 41 c-59 22 -112 40 -118 40 -19 0 -27 -76
-10 -101 34 -47 193 -149 236 -149 40 0 229 119 250 158 15 28 2 102 -18 101
-9 0 -65 -21 -125 -45z"/>
<path d="M1261 434 c-6 -23 -7 -43 -1 -54 17 -32 99 -98 164 -131 l63 -33 46
18 c58 22 153 84 191 124 25 27 27 35 21 71 -4 23 -11 41 -16 41 -5 0 -54 -18
-109 -40 -55 -22 -107 -40 -115 -40 -8 0 -62 18 -120 40 -58 22 -107 40 -110
40 -2 0 -9 -16 -14 -36z"/>
</g>
</svg>
